<svg id="Warstwa_1" data-name="Warstwa 1" xmlns="http://www.w3.org/2000/svg" viewBox="0 0 288.87 331.74">
  <path d="M460.87,624.63C425.24,505.31,493.3,464.28,595,361c26.08-25.27,39.27-37.82,47.23-34.08,11.8,76.36,13.27,218.92-34.86,276.82C582.73,648.52,501.44,684.82,460.87,624.63Z" transform="translate(-360.26 -326.27)" fill="#5cba49"/>
  <path d="M1132,380" transform="translate(-360.26 -326.27)" fill="#5cba49"/>
  <path d="M480.28,636.85c34.4-87.92-67.72-140.28-115.95-190.37-5.14,1.66-4.29,15.56-3.4,47.41,1.65,58.22.07,56.31,2.35,68.62C364.42,611.83,429.49,698.08,480.28,636.85Z" transform="translate(-360.26 -326.27)" fill="#5cba49"/>
</svg>
